<svg viewBox="0 0 1400 900" xmlns="http://www.w3.org/2000/svg">
  <defs>
    <linearGradient id="bgGrad" x1="0%" y1="0%" x2="100%" y2="100%">
      <stop offset="0%" stop-color="#0d1117"/>
      <stop offset="100%" stop-color="#12161d"/>
    </linearGradient>
    <filter id="glow" x="-50%" y="-50%" width="200%" height="200%">
      <feGaussianBlur stdDeviation="4" result="blur"/>
      <feMerge>
        <feMergeNode in="blur"/>
        <feMergeNode in="SourceGraphic"/>
      </feMerge>
    </filter>
    <filter id="softGlow" x="-50%" y="-50%" width="200%" height="200%">
      <feGaussianBlur stdDeviation="2" result="blur"/>
      <feMerge>
        <feMergeNode in="blur"/>
        <feMergeNode in="SourceGraphic"/>
      </feMerge>
    </filter>
  </defs>

  <rect width="1400" height="900" fill="url(#bgGrad)"/>

  <g stroke="#232a35" stroke-width="10" fill="none" opacity="0.9">
    <path d="M -50 150 L 550 -50"/>
    <path d="M 150 950 L 950 50"/>
    <path d="M 450 950 L 1250 100"/>
    <path d="M 750 950 L 1450 250"/>
    <path d="M -50 500 L 500 950"/>
    <path d="M 300 -50 L -50 350"/>
    <path d="M 900 -50 L 300 550"/>
    <path d="M 1450 500 L 900 950"/>
    <path d="M 1450 100 L 1000 -50"/>
  </g>
  <g stroke="#1a1f28" stroke-width="4" fill="none" opacity="0.8">
    <path d="M -50 150 L 550 -50"/>
    <path d="M 150 950 L 950 50"/>
    <path d="M 450 950 L 1250 100"/>
    <path d="M 750 950 L 1450 250"/>
    <path d="M -50 500 L 500 950"/>
    <path d="M 300 -50 L -50 350"/>
    <path d="M 900 -50 L 300 550"/>
    <path d="M 1450 500 L 900 950"/>
    <path d="M 1450 100 L 1000 -50"/>
  </g>

  <g stroke="#1c222c" stroke-width="6" fill="none" opacity="0.7">
    <path d="M 0 250 L 1400 250"/>
    <path d="M 0 550 L 1400 550"/>
    <path d="M 250 0 L 250 900"/>
    <path d="M 700 0 L 700 900"/>
    <path d="M 1100 0 L 1100 900"/>
  </g>

  <path d="M 90 250 Q 300 300 350 380 T 240 480" fill="none" stroke="#f2b93b" stroke-width="3.5"
        stroke-dasharray="10 8" opacity="0.85" filter="url(#softGlow)"/>
  <path d="M 1230 150 Q 1150 300 1180 420 T 1130 620" fill="none" stroke="#f2b93b" stroke-width="3.5"
        stroke-dasharray="10 8" opacity="0.85" filter="url(#softGlow)"/>

  <g transform="translate(90,220)" filter="url(#glow)">
    <ellipse cx="0" cy="46" rx="26" ry="8" fill="#f2b93b" opacity="0.25"/>
    <path d="M0,-34 C18,-34 30,-20 30,-4 C30,18 0,46 0,46 C0,46 -30,18 -30,-4 C-30,-20 -18,-34 0,-34 Z" fill="#f2b93b"/>
    <circle cx="0" cy="-4" r="10" fill="#0d1117"/>
  </g>

  <g transform="translate(1230,120)" filter="url(#glow)">
    <ellipse cx="0" cy="46" rx="26" ry="8" fill="#f2b93b" opacity="0.25"/>
    <path d="M0,-34 C18,-34 30,-20 30,-4 C30,18 0,46 0,46 C0,46 -30,18 -30,-4 C-30,-20 -18,-34 0,-34 Z" fill="#f2b93b"/>
    <circle cx="0" cy="-4" r="10" fill="#0d1117"/>
  </g>

  <g transform="translate(210,60) rotate(-25)">
    <rect x="-38" y="-16" width="76" height="32" rx="10" fill="#f2b93b"/>
    <rect x="-24" y="-26" width="48" height="20" rx="8" fill="#12161d"/>
    <rect x="-18" y="-22" width="14" height="12" rx="2" fill="#3a3f4a"/>
    <rect x="4" y="-22" width="14" height="12" rx="2" fill="#3a3f4a"/>
    <circle cx="-22" cy="16" r="7" fill="#12161d"/>
    <circle cx="22" cy="16" r="7" fill="#12161d"/>
  </g>

  <g transform="translate(80,440) rotate(35)">
    <rect x="-38" y="-16" width="76" height="32" rx="10" fill="#f2b93b"/>
    <rect x="-24" y="-26" width="48" height="20" rx="8" fill="#12161d"/>
    <rect x="-18" y="-22" width="14" height="12" rx="2" fill="#3a3f4a"/>
    <rect x="4" y="-22" width="14" height="12" rx="2" fill="#3a3f4a"/>
    <circle cx="-22" cy="16" r="7" fill="#12161d"/>
    <circle cx="22" cy="16" r="7" fill="#12161d"/>
  </g>

  <g transform="translate(1290,380) rotate(-30)">
    <rect x="-34" y="-14" width="68" height="28" rx="9" fill="#f2b93b"/>
    <rect x="-21" y="-23" width="42" height="18" rx="7" fill="#12161d"/>
    <rect x="-16" y="-19" width="12" height="10" rx="2" fill="#3a3f4a"/>
    <rect x="4" y="-19" width="12" height="10" rx="2" fill="#3a3f4a"/>
    <circle cx="-19" cy="14" r="6" fill="#12161d"/>
    <circle cx="19" cy="14" r="6" fill="#12161d"/>
  </g>

  <g transform="translate(1220,780) rotate(20)">
    <rect x="-38" y="-16" width="76" height="32" rx="10" fill="#f2b93b"/>
    <rect x="-24" y="-26" width="48" height="20" rx="8" fill="#12161d"/>
    <rect x="-18" y="-22" width="14" height="12" rx="2" fill="#3a3f4a"/>
    <rect x="4" y="-22" width="14" height="12" rx="2" fill="#3a3f4a"/>
    <circle cx="-22" cy="16" r="7" fill="#12161d"/>
    <circle cx="22" cy="16" r="7" fill="#12161d"/>
  </g>

  <text x="200" y="190" fill="#8b93a1" font-family="Poppins, sans-serif" font-size="20" opacity="0.75">City Center</text>
  <text x="960" y="60" fill="#8b93a1" font-family="Poppins, sans-serif" font-size="20" opacity="0.75">Central Park</text>
  <text x="1180" y="290" fill="#8b93a1" font-family="Poppins, sans-serif" font-size="20" opacity="0.75">Main Street</text>
  <text x="1000" y="770" fill="#8b93a1" font-family="Poppins, sans-serif" font-size="20" opacity="0.75">Airport Road</text>

</svg>